<svg width="32" height="16" viewBox="0 0 32 16" fill="none" xmlns="http://www.w3.org/2000/svg">
<path d="M15.725 8.84531C17.861 8.84531 19.748 9.35637 21.2812 10.0247C22.6964 10.6537 23.5875 12.0689 23.5875 13.6021V15.725H7.8625V13.6152C7.8625 12.0689 8.75358 10.6537 10.1688 10.0378C11.702 9.35637 13.589 8.84531 15.725 8.84531ZM5.24167 9.17292C6.68313 9.17292 7.8625 7.99354 7.8625 6.55208C7.8625 5.11063 6.68313 3.93125 5.24167 3.93125C3.80021 3.93125 2.62083 5.11063 2.62083 6.55208C2.62083 7.99354 3.80021 9.17292 5.24167 9.17292ZM6.72244 10.6144C6.23758 10.5358 5.75273 10.4833 5.24167 10.4833C3.94435 10.4833 2.71256 10.7585 1.59871 11.2434C0.629 11.6627 0 12.6062 0 13.6676V15.725H5.89688V13.6152C5.89688 12.5276 6.19827 11.5055 6.72244 10.6144ZM26.2083 9.17292C27.6498 9.17292 28.8292 7.99354 28.8292 6.55208C28.8292 5.11063 27.6498 3.93125 26.2083 3.93125C24.7669 3.93125 23.5875 5.11063 23.5875 6.55208C23.5875 7.99354 24.7669 9.17292 26.2083 9.17292ZM31.45 13.6676C31.45 12.6062 30.821 11.6627 29.8513 11.2434C28.7374 10.7585 27.5056 10.4833 26.2083 10.4833C25.6973 10.4833 25.2124 10.5358 24.7276 10.6144C25.2517 11.5055 25.5531 12.5276 25.5531 13.6152V15.725H31.45V13.6676ZM15.725 0C17.9003 0 19.6562 1.75596 19.6562 3.93125C19.6562 6.10654 17.9003 7.8625 15.725 7.8625C13.5497 7.8625 11.7938 6.10654 11.7938 3.93125C11.7938 1.75596 13.5497 0 15.725 0Z" fill="#B1B1B1"/>
</svg>
