<svg width="139" height="43" viewBox="0 0 139 43" fill="none" xmlns="http://www.w3.org/2000/svg">
<path d="M75.016 37.328C73.736 37.328 72.576 37.016 71.536 36.392C70.512 35.768 69.704 34.904 69.112 33.8C68.52 32.696 68.224 31.472 68.224 30.128C68.224 28.784 68.52 27.56 69.112 26.456C69.704 25.352 70.512 24.488 71.536 23.864C72.576 23.24 73.736 22.928 75.016 22.928C76.184 22.928 77.192 23.16 78.04 23.624C78.888 24.088 79.504 24.648 79.888 25.304V23.264H82.36V36.992H79.888V34.952C79.504 35.608 78.888 36.168 78.04 36.632C77.192 37.096 76.184 37.328 75.016 37.328ZM75.232 35.144C76.144 35.144 76.952 34.928 77.656 34.496C78.376 34.048 78.936 33.448 79.336 32.696C79.736 31.928 79.936 31.072 79.936 30.128C79.936 29.184 79.736 28.336 79.336 27.584C78.936 26.816 78.376 26.216 77.656 25.784C76.952 25.336 76.144 25.112 75.232 25.112C74.336 25.112 73.536 25.328 72.832 25.76C72.144 26.192 71.608 26.792 71.224 27.56C70.84 28.328 70.648 29.184 70.648 30.128C70.648 31.072 70.84 31.928 71.224 32.696C71.608 33.464 72.144 34.064 72.832 34.496C73.536 34.928 74.336 35.144 75.232 35.144ZM93.4409 25.448H90.3929V36.992H87.9209V25.448H84.8729V23.264H87.9209V19.088H90.3929V23.264H93.4409V25.448ZM98.4629 17.168V25.352C98.8149 24.728 99.3909 24.168 100.191 23.672C101.007 23.176 101.983 22.928 103.119 22.928C104.191 22.928 105.143 23.176 105.975 23.672C106.823 24.168 107.479 24.872 107.943 25.784C108.407 26.68 108.639 27.736 108.639 28.952V36.992H106.167V29.384C106.167 28.008 105.847 26.952 105.207 26.216C104.583 25.464 103.711 25.088 102.591 25.088C101.807 25.088 101.103 25.312 100.479 25.76C99.8549 26.192 99.3589 26.776 98.9909 27.512C98.6389 28.248 98.4629 29.04 98.4629 29.888V36.992H95.9909V17.168H98.4629ZM118.378 37.328C117.066 37.328 115.882 37.016 114.826 36.392C113.786 35.768 112.97 34.912 112.378 33.824C111.786 32.72 111.49 31.488 111.49 30.128C111.49 28.768 111.786 27.544 112.378 26.456C112.97 25.352 113.786 24.488 114.826 23.864C115.882 23.24 117.066 22.928 118.378 22.928C119.69 22.928 120.866 23.24 121.906 23.864C122.962 24.488 123.778 25.352 124.354 26.456C124.946 27.544 125.242 28.768 125.242 30.128C125.242 30.576 125.226 30.912 125.194 31.136H113.962C114.09 32.336 114.554 33.32 115.354 34.088C116.17 34.856 117.178 35.24 118.378 35.24C119.29 35.24 120.09 35.056 120.778 34.688C121.482 34.304 121.962 33.824 122.218 33.248H124.738C124.354 34.448 123.586 35.424 122.434 36.176C121.282 36.944 119.93 37.328 118.378 37.328ZM122.818 29.12C122.674 27.904 122.202 26.92 121.402 26.168C120.602 25.4 119.594 25.016 118.378 25.016C117.162 25.016 116.154 25.4 115.354 26.168C114.554 26.92 114.09 27.904 113.962 29.12H122.818ZM130.854 23.264V25.376C131.222 24.752 131.83 24.192 132.678 23.696C133.542 23.184 134.582 22.928 135.798 22.928C136.582 22.928 137.206 23.008 137.67 23.168V25.52C137.11 25.264 136.43 25.136 135.63 25.136C134.718 25.136 133.894 25.36 133.158 25.808C132.438 26.24 131.87 26.824 131.454 27.56C131.054 28.28 130.854 29.056 130.854 29.888V36.992H128.382V23.264H130.854Z" fill="#33B2FB"/>
<path d="M10.775 20.4V38.075H8.15V20.4H0.95V18.05H17.95V20.4H10.775ZM22.267 23.425C23.6503 23.425 24.9003 23.75 26.017 24.4C27.1337 25.05 28.0003 25.95 28.617 27.1C29.2503 28.2333 29.567 29.5083 29.567 30.925C29.567 32.3417 29.2503 33.625 28.617 34.775C28.0003 35.9083 27.1337 36.8 26.017 37.45C24.9003 38.1 23.6503 38.425 22.267 38.425C20.867 38.425 19.6087 38.1 18.492 37.45C17.392 36.8 16.5253 35.9083 15.892 34.775C15.2587 33.625 14.942 32.3417 14.942 30.925C14.942 29.5083 15.2587 28.2333 15.892 27.1C16.5253 25.95 17.392 25.05 18.492 24.4C19.6087 23.75 20.867 23.425 22.267 23.425ZM22.267 25.7C21.3337 25.7 20.5003 25.9333 19.767 26.4C19.0503 26.85 18.4837 27.475 18.067 28.275C17.667 29.0583 17.467 29.9417 17.467 30.925C17.467 31.9083 17.667 32.8 18.067 33.6C18.4837 34.3833 19.0503 35.0083 19.767 35.475C20.5003 35.925 21.3337 36.15 22.267 36.15C23.1837 36.15 24.0087 35.925 24.742 35.475C25.4753 35.0083 26.042 34.3833 26.442 33.6C26.842 32.8 27.042 31.9083 27.042 30.925C27.042 29.9417 26.842 29.0583 26.442 28.275C26.042 27.475 25.4753 26.85 24.742 26.4C24.0087 25.9333 23.1837 25.7 22.267 25.7Z" fill="#82D1FF"/>
<path d="M66 19.5C66 29.165 58.165 37 48.5 37C38.835 37 31 29.165 31 19.5C31 9.83502 38.835 2 48.5 2" stroke="#33B2FB" stroke-width="2.5" stroke-linecap="round"/>
<circle cx="49" cy="37" r="2" fill="#BCE4FB"/>
<circle cx="49" cy="2" r="2" fill="#33B2FB"/>
<circle cx="66" cy="19" r="2" fill="#33B2FB"/>
<path d="M51.2929 18.2929C50.9024 18.6834 50.9024 19.3166 51.2929 19.7071L57.6569 26.0711C58.0474 26.4616 58.6805 26.4616 59.0711 26.0711C59.4616 25.6805 59.4616 25.0474 59.0711 24.6569L53.4142 19L59.0711 13.3431C59.4616 12.9526 59.4616 12.3195 59.0711 11.9289C58.6805 11.5384 58.0474 11.5384 57.6569 11.9289L51.2929 18.2929ZM66 18L52 18L52 20L66 20L66 18Z" fill="#33B2FB"/>
<path d="M46.7071 19.7071C47.0976 19.3166 47.0976 18.6834 46.7071 18.2929L40.3431 11.9289C39.9526 11.5384 39.3195 11.5384 38.9289 11.9289C38.5384 12.3195 38.5384 12.9526 38.9289 13.3431L44.5858 19L38.9289 24.6569C38.5384 25.0474 38.5384 25.6805 38.9289 26.0711C39.3195 26.4616 39.9526 26.4616 40.3431 26.0711L46.7071 19.7071ZM9 20H46V18H9V20Z" fill="#82D1FF"/>
<path d="M49.7071 23.2929C49.3166 22.9024 48.6834 22.9024 48.2929 23.2929L41.9289 29.6569C41.5384 30.0474 41.5384 30.6805 41.9289 31.0711C42.3195 31.4616 42.9526 31.4616 43.3431 31.0711L49 25.4142L54.6569 31.0711C55.0474 31.4616 55.6805 31.4616 56.0711 31.0711C56.4616 30.6805 56.4616 30.0474 56.0711 29.6569L49.7071 23.2929ZM50 38L50 24L48 24L48 38L50 38Z" fill="#BCE4FB"/>
</svg>
